<svg width="24" height="22" viewBox="0 0 24 22" fill="none" xmlns="http://www.w3.org/2000/svg">
<path d="M0 2.89474C0 1.29602 1.27919 0 2.85714 0C4.4351 0 5.71429 1.29602 5.71429 2.89474C5.71429 4.49346 4.4351 5.78947 2.85714 5.78947C1.27919 5.78947 0 4.49346 0 2.89474Z" fill="white"/>
<path d="M0 11C0 9.40128 1.27919 8.10526 2.85714 8.10526C4.4351 8.10526 5.71429 9.40128 5.71429 11C5.71429 12.5987 4.4351 13.8947 2.85714 13.8947C1.27919 13.8947 0 12.5987 0 11Z" fill="white"/>
<path d="M0 19.1053C0 17.5065 1.27919 16.2105 2.85714 16.2105C4.4351 16.2105 5.71429 17.5065 5.71429 19.1053C5.71429 20.704 4.4351 22 2.85714 22C1.27919 22 0 20.704 0 19.1053Z" fill="white"/>
<path d="M9.14286 2.89474C9.14286 1.29602 10.422 0 12 0C13.578 0 14.8571 1.29602 14.8571 2.89474C14.8571 4.49346 13.578 5.78947 12 5.78947C10.422 5.78947 9.14286 4.49346 9.14286 2.89474Z" fill="white"/>
<path d="M9.14286 11C9.14286 9.40128 10.422 8.10526 12 8.10526C13.578 8.10526 14.8571 9.40128 14.8571 11C14.8571 12.5987 13.578 13.8947 12 13.8947C10.422 13.8947 9.14286 12.5987 9.14286 11Z" fill="white"/>
<path d="M9.14286 19.1053C9.14286 17.5065 10.422 16.2105 12 16.2105C13.578 16.2105 14.8571 17.5065 14.8571 19.1053C14.8571 20.704 13.578 22 12 22C10.422 22 9.14286 20.704 9.14286 19.1053Z" fill="white"/>
<path d="M18.2857 2.89474C18.2857 1.29602 19.5649 0 21.1429 0C22.7208 0 24 1.29602 24 2.89474C24 4.49346 22.7208 5.78947 21.1429 5.78947C19.5649 5.78947 18.2857 4.49346 18.2857 2.89474Z" fill="white"/>
<path d="M18.2857 11C18.2857 9.40128 19.5649 8.10526 21.1429 8.10526C22.7208 8.10526 24 9.40128 24 11C24 12.5987 22.7208 13.8947 21.1429 13.8947C19.5649 13.8947 18.2857 12.5987 18.2857 11Z" fill="white"/>
<path d="M18.2857 19.1053C18.2857 17.5065 19.5649 16.2105 21.1429 16.2105C22.7208 16.2105 24 17.5065 24 19.1053C24 20.704 22.7208 22 21.1429 22C19.5649 22 18.2857 20.704 18.2857 19.1053Z" fill="white"/>
</svg>
