<svg width="20" height="15" viewBox="0 0 20 15" fill="none" xmlns="http://www.w3.org/2000/svg">
<path d="M2.24902 1.25098H6.24902L9.74902 3.75098L13.249 0.750977L17.749 1.25098L18.249 7.75098L11.749 13.751H8.24902L3.74902 11.251L0.749023 7.25098L2.24902 1.25098Z" fill="#F27618"/>
<path d="M9.74976 4.75244C9.74973 3.10523 7.2691 0.829582 5.00806 0.752283C2.46466 0.665331 -0.0804695 3.06968 1.00824 6.6996C2.50802 11.7001 8.74976 14.2524 9.74976 14.2524" stroke="#F27618" stroke-width="1.5"/>
<path d="M9.74829 4.75244C9.74831 3.10523 12.2289 0.829582 14.49 0.752283C17.0334 0.665331 19.5785 3.06968 18.4898 6.6996C16.99 11.7001 10.7483 14.2524 9.74829 14.2524" stroke="#F27618" stroke-width="1.5"/>
</svg>
