<svg width="111" height="21" viewBox="0 0 111 21" fill="none" xmlns="http://www.w3.org/2000/svg">
<path d="M-1.94311e-05 20.3V0.307998H12.348V3.808H4.22798V20.3H-1.94311e-05ZM15.0384 20.608C14.6091 20.608 14.1891 20.5707 13.7784 20.496C13.3677 20.44 12.9851 20.3653 12.6304 20.272V16.716C12.8917 16.772 13.1157 16.8187 13.3024 16.856C13.5077 16.8747 13.7224 16.884 13.9464 16.884C14.4691 16.884 14.8891 16.772 15.2064 16.548C15.5424 16.324 15.8037 15.96 15.9904 15.456C16.1771 14.952 16.2984 14.2987 16.3544 13.496C16.4291 12.7307 16.4944 11.928 16.5504 11.088C16.6064 10.2293 16.6624 9.296 16.7184 8.288C16.7744 7.26133 16.8304 6.104 16.8864 4.816C16.9611 3.50933 17.0357 2.00666 17.1104 0.307998H30.7184V20.3H26.4064V3.864H20.8904C20.8531 4.94666 20.8064 5.964 20.7504 6.916C20.6944 7.868 20.6384 8.77333 20.5824 9.632C20.5451 10.4907 20.4984 11.312 20.4424 12.096C20.3864 12.8613 20.3211 13.608 20.2464 14.336C20.0971 15.792 19.8171 16.9773 19.4064 17.892C19.0144 18.8067 18.4544 19.488 17.7264 19.936C17.0171 20.384 16.1211 20.608 15.0384 20.608ZM43.9735 20.58C42.4802 20.58 41.1455 20.356 39.9695 19.908C38.8122 19.4413 37.8229 18.7693 37.0015 17.892C36.1989 16.996 35.5829 15.904 35.1535 14.616C34.7429 13.328 34.5375 11.872 34.5375 10.248C34.5375 8.064 34.9109 6.216 35.6575 4.704C36.4042 3.17333 37.4775 2.00666 38.8775 1.204C40.2962 0.401332 42.0135 -1.43051e-06 44.0295 -1.43051e-06C46.0269 -1.43051e-06 47.7162 0.401332 49.0975 1.204C50.4975 2.00666 51.5615 3.17333 52.2895 4.704C53.0175 6.23467 53.3815 8.092 53.3815 10.276C53.3815 11.9 53.1669 13.356 52.7375 14.644C52.3269 15.9133 51.7202 16.996 50.9175 17.892C50.1335 18.7693 49.1535 19.4413 47.9775 19.908C46.8015 20.356 45.4669 20.58 43.9735 20.58ZM43.9735 17.024C45.5975 17.024 46.8295 16.4547 47.6695 15.316C48.5095 14.1587 48.9295 12.4787 48.9295 10.276C48.9295 8.07333 48.5189 6.40267 47.6975 5.264C46.8762 4.12533 45.6629 3.556 44.0575 3.556C42.4335 3.556 41.1829 4.12533 40.3055 5.264C39.4282 6.40267 38.9895 8.07333 38.9895 10.276C38.9895 11.732 39.1762 12.964 39.5495 13.972C39.9415 14.9613 40.5109 15.7173 41.2575 16.24C42.0042 16.7627 42.9095 17.024 43.9735 17.024ZM57.2272 20.3V0.307998H63.4992C66.0565 0.307998 67.9512 0.849332 69.1832 1.932C70.4338 2.996 71.0592 4.55467 71.0592 6.608C71.0592 7.93333 70.7792 9.1 70.2192 10.108C69.6778 11.116 68.8378 11.9093 67.6992 12.488C66.5605 13.048 65.1045 13.328 63.3312 13.328H61.5112V20.3H57.2272ZM61.5112 9.8H62.9672C63.8072 9.8 64.5072 9.69733 65.0672 9.492C65.6272 9.268 66.0472 8.932 66.3272 8.484C66.6072 8.01733 66.7472 7.42933 66.7472 6.72C66.7472 5.73066 66.4578 5.00266 65.8792 4.536C65.3005 4.05066 64.3952 3.808 63.1632 3.808H61.5112V9.8ZM74.8125 20.3V0.307998H79.0405V10.024C79.0405 10.64 79.0311 11.3213 79.0125 12.068C78.9938 12.796 78.9658 13.4587 78.9285 14.056C78.9098 14.6347 78.8911 15.0173 78.8725 15.204H78.9565L86.5445 0.307998H91.8085V20.3H87.5805V11.06C87.5805 10.556 87.5898 10.0053 87.6085 9.408C87.6271 8.792 87.6458 8.204 87.6645 7.644C87.7018 7.084 87.7298 6.59867 87.7485 6.188C87.7671 5.75867 87.7858 5.47867 87.8045 5.348H87.6925L80.0765 20.3H74.8125ZM95.0009 20.3L100.517 11.872C99.9569 11.6667 99.3783 11.3493 98.7809 10.92C98.2023 10.4907 97.7076 9.90267 97.2969 9.156C96.9049 8.39067 96.7089 7.42 96.7089 6.244C96.7089 4.30267 97.3716 2.828 98.6969 1.82C100.041 0.811998 101.917 0.307998 104.325 0.307998H110.989V20.3H106.761V12.908H104.465L99.7329 20.3H95.0009ZM104.521 9.436H106.761V3.78H104.465C103.308 3.78 102.44 4.004 101.861 4.452C101.301 4.88133 101.021 5.56266 101.021 6.496C101.021 7.52267 101.32 8.26933 101.917 8.736C102.533 9.20267 103.401 9.436 104.521 9.436Z" fill="white"/>
</svg>
