<svg width="111" height="21" viewBox="0 0 111 21" fill="none" xmlns="http://www.w3.org/2000/svg">
<path d="M-1.94311e-05 20.3V0.308048H12.348V3.80805H4.22798V20.3H-1.94311e-05ZM15.0384 20.608C14.6091 20.608 14.1891 20.5707 13.7784 20.496C13.3677 20.44 12.9851 20.3654 12.6304 20.272V16.716C12.8917 16.772 13.1157 16.8187 13.3024 16.856C13.5077 16.8747 13.7224 16.884 13.9464 16.884C14.4691 16.884 14.8891 16.772 15.2064 16.548C15.5424 16.324 15.8037 15.96 15.9904 15.456C16.1771 14.952 16.2984 14.2987 16.3544 13.496C16.4291 12.7307 16.4944 11.928 16.5504 11.088C16.6064 10.2294 16.6624 9.29605 16.7184 8.28805C16.7744 7.26138 16.8304 6.10405 16.8864 4.81605C16.9611 3.50938 17.0357 2.00671 17.1104 0.308048H30.7184V20.3H26.4064V3.86405H20.8904C20.8531 4.94671 20.8064 5.96405 20.7504 6.91605C20.6944 7.86805 20.6384 8.77338 20.5824 9.63205C20.5451 10.4907 20.4984 11.312 20.4424 12.096C20.3864 12.8614 20.3211 13.608 20.2464 14.336C20.0971 15.792 19.8171 16.9774 19.4064 17.892C19.0144 18.8067 18.4544 19.488 17.7264 19.936C17.0171 20.384 16.1211 20.608 15.0384 20.608ZM43.9735 20.58C42.4802 20.58 41.1455 20.356 39.9695 19.908C38.8122 19.4414 37.8229 18.7694 37.0015 17.892C36.1989 16.996 35.5829 15.904 35.1535 14.616C34.7429 13.328 34.5375 11.872 34.5375 10.248C34.5375 8.06405 34.9109 6.21605 35.6575 4.70405C36.4042 3.17338 37.4775 2.00671 38.8775 1.20405C40.2962 0.401381 42.0135 4.81606e-05 44.0295 4.81606e-05C46.0269 4.81606e-05 47.7162 0.401381 49.0975 1.20405C50.4975 2.00671 51.5615 3.17338 52.2895 4.70405C53.0175 6.23471 53.3815 8.09205 53.3815 10.276C53.3815 11.9 53.1669 13.356 52.7375 14.644C52.3269 15.9134 51.7202 16.996 50.9175 17.892C50.1335 18.7694 49.1535 19.4414 47.9775 19.908C46.8015 20.356 45.4669 20.58 43.9735 20.58ZM43.9735 17.024C45.5975 17.024 46.8295 16.4547 47.6695 15.316C48.5095 14.1587 48.9295 12.4787 48.9295 10.276C48.9295 8.07338 48.5189 6.40272 47.6975 5.26405C46.8762 4.12538 45.6629 3.55605 44.0575 3.55605C42.4335 3.55605 41.1829 4.12538 40.3055 5.26405C39.4282 6.40272 38.9895 8.07338 38.9895 10.276C38.9895 11.732 39.1762 12.964 39.5495 13.972C39.9415 14.9614 40.5109 15.7174 41.2575 16.24C42.0042 16.7627 42.9095 17.024 43.9735 17.024ZM57.2272 20.3V0.308048H63.4992C66.0565 0.308048 67.9512 0.849381 69.1832 1.93205C70.4338 2.99605 71.0592 4.55471 71.0592 6.60805C71.0592 7.93338 70.7792 9.10005 70.2192 10.108C69.6778 11.116 68.8378 11.9094 67.6992 12.488C66.5605 13.048 65.1045 13.328 63.3312 13.328H61.5112V20.3H57.2272ZM61.5112 9.80005H62.9672C63.8072 9.80005 64.5072 9.69738 65.0672 9.49205C65.6272 9.26805 66.0472 8.93205 66.3272 8.48405C66.6072 8.01738 66.7472 7.42938 66.7472 6.72005C66.7472 5.73071 66.4578 5.00271 65.8792 4.53605C65.3005 4.05071 64.3952 3.80805 63.1632 3.80805H61.5112V9.80005ZM74.8125 20.3V0.308048H79.0405V10.024C79.0405 10.64 79.0311 11.3214 79.0125 12.068C78.9938 12.796 78.9658 13.4587 78.9285 14.056C78.9098 14.6347 78.8911 15.0174 78.8725 15.204H78.9565L86.5445 0.308048H91.8085V20.3H87.5805V11.06C87.5805 10.556 87.5898 10.0054 87.6085 9.40805C87.6271 8.79205 87.6458 8.20405 87.6645 7.64405C87.7018 7.08405 87.7298 6.59871 87.7485 6.18805C87.7671 5.75872 87.7858 5.47871 87.8045 5.34805H87.6925L80.0765 20.3H74.8125ZM95.0009 20.3L100.517 11.872C99.9569 11.6667 99.3783 11.3494 98.7809 10.92C98.2023 10.4907 97.7076 9.90272 97.2969 9.15605C96.9049 8.39072 96.7089 7.42005 96.7089 6.24405C96.7089 4.30272 97.3716 2.82805 98.6969 1.82005C100.041 0.812048 101.917 0.308048 104.325 0.308048H110.989V20.3H106.761V12.908H104.465L99.7329 20.3H95.0009ZM104.521 9.43605H106.761V3.78005H104.465C103.308 3.78005 102.44 4.00405 101.861 4.45205C101.301 4.88138 101.021 5.56271 101.021 6.49605C101.021 7.52271 101.32 8.26938 101.917 8.73605C102.533 9.20272 103.401 9.43605 104.521 9.43605Z" fill="#F27618"/>
</svg>
