<svg width="165" height="64" viewBox="0 0 165 64" fill="none" xmlns="http://www.w3.org/2000/svg">
<rect width="165" height="64" rx="32" fill="white"/>
<path d="M27.0102 41.5V21.508H39.3582V25.008H31.2382V41.5H27.0102ZM42.0486 41.808C41.6193 41.808 41.1993 41.7707 40.7886 41.696C40.378 41.64 39.9953 41.5653 39.6406 41.472V37.916C39.902 37.972 40.126 38.0187 40.3126 38.056C40.518 38.0747 40.7326 38.084 40.9566 38.084C41.4793 38.084 41.8993 37.972 42.2166 37.748C42.5526 37.524 42.814 37.16 43.0006 36.656C43.1873 36.152 43.3086 35.4987 43.3646 34.696C43.4393 33.9307 43.5046 33.128 43.5606 32.288C43.6166 31.4293 43.6726 30.496 43.7286 29.488C43.7846 28.4613 43.8406 27.304 43.8966 26.016C43.9713 24.7093 44.046 23.2067 44.1206 21.508H57.7286V41.5H53.4166V25.064H47.9006C47.8633 26.1467 47.8166 27.164 47.7606 28.116C47.7046 29.068 47.6486 29.9733 47.5926 30.832C47.5553 31.6907 47.5086 32.512 47.4526 33.296C47.3966 34.0613 47.3313 34.808 47.2566 35.536C47.1073 36.992 46.8273 38.1773 46.4166 39.092C46.0246 40.0067 45.4646 40.688 44.7366 41.136C44.0273 41.584 43.1313 41.808 42.0486 41.808ZM70.9838 41.78C69.4905 41.78 68.1558 41.556 66.9798 41.108C65.8225 40.6413 64.8331 39.9693 64.0118 39.092C63.2091 38.196 62.5931 37.104 62.1638 35.816C61.7531 34.528 61.5478 33.072 61.5478 31.448C61.5478 29.264 61.9211 27.416 62.6678 25.904C63.4145 24.3733 64.4878 23.2067 65.8878 22.404C67.3065 21.6013 69.0238 21.2 71.0398 21.2C73.0371 21.2 74.7265 21.6013 76.1078 22.404C77.5078 23.2067 78.5718 24.3733 79.2998 25.904C80.0278 27.4347 80.3918 29.292 80.3918 31.476C80.3918 33.1 80.1771 34.556 79.7478 35.844C79.3371 37.1133 78.7305 38.196 77.9278 39.092C77.1438 39.9693 76.1638 40.6413 74.9878 41.108C73.8118 41.556 72.4771 41.78 70.9838 41.78ZM70.9838 38.224C72.6078 38.224 73.8398 37.6547 74.6798 36.516C75.5198 35.3587 75.9398 33.6787 75.9398 31.476C75.9398 29.2733 75.5291 27.6027 74.7078 26.464C73.8865 25.3253 72.6731 24.756 71.0678 24.756C69.4438 24.756 68.1931 25.3253 67.3158 26.464C66.4385 27.6027 65.9998 29.2733 65.9998 31.476C65.9998 32.932 66.1865 34.164 66.5598 35.172C66.9518 36.1613 67.5211 36.9173 68.2678 37.44C69.0145 37.9627 69.9198 38.224 70.9838 38.224ZM84.2374 41.5V21.508H90.5094C93.0668 21.508 94.9614 22.0493 96.1934 23.132C97.4441 24.196 98.0694 25.7547 98.0694 27.808C98.0694 29.1333 97.7894 30.3 97.2294 31.308C96.6881 32.316 95.8481 33.1093 94.7094 33.688C93.5708 34.248 92.1148 34.528 90.3414 34.528H88.5214V41.5H84.2374ZM88.5214 31H89.9774C90.8174 31 91.5174 30.8973 92.0774 30.692C92.6374 30.468 93.0574 30.132 93.3374 29.684C93.6174 29.2173 93.7574 28.6293 93.7574 27.92C93.7574 26.9307 93.4681 26.2027 92.8894 25.736C92.3108 25.2507 91.4054 25.008 90.1734 25.008H88.5214V31ZM101.823 41.5V21.508H106.051V31.224C106.051 31.84 106.041 32.5213 106.023 33.268C106.004 33.996 105.976 34.6587 105.939 35.256C105.92 35.8347 105.901 36.2173 105.883 36.404H105.967L113.555 21.508H118.819V41.5H114.591V32.26C114.591 31.756 114.6 31.2053 114.619 30.608C114.637 29.992 114.656 29.404 114.675 28.844C114.712 28.284 114.74 27.7987 114.759 27.388C114.777 26.9587 114.796 26.6787 114.815 26.548H114.703L107.087 41.5H101.823ZM122.011 41.5L127.527 33.072C126.967 32.8667 126.389 32.5493 125.791 32.12C125.213 31.6907 124.718 31.1027 124.307 30.356C123.915 29.5907 123.719 28.62 123.719 27.444C123.719 25.5027 124.382 24.028 125.707 23.02C127.051 22.012 128.927 21.508 131.335 21.508H137.999V41.5H133.771V34.108H131.475L126.743 41.5H122.011ZM131.531 30.636H133.771V24.98H131.475C130.318 24.98 129.45 25.204 128.871 25.652C128.311 26.0813 128.031 26.7627 128.031 27.696C128.031 28.7227 128.33 29.4693 128.927 29.936C129.543 30.4027 130.411 30.636 131.531 30.636Z" fill="#F27618"/>
</svg>
